<?xml version="1.0" encoding="iso-8859-1"?>
<!-- Generator: Adobe Illustrator 19.0.0, SVG Export Plug-In . SVG Version: 6.00 Build 0)  -->
<svg version="1.1" id="Capa_1" xmlns="http://www.w3.org/2000/svg" xmlns:xlink="http://www.w3.org/1999/xlink" x="0px" y="0px"
	 viewBox="0 0 480 480" style="enable-background:new 0 0 480 480;" xml:space="preserve">
<g>
	<g>
		<path d="M344,336h-51.312L240,388.688L187.312,336H136c-69.528,0-120,50.832-120,120.872V480h16v-23.128
			C32,396.104,75.736,352,136,352h44.688L240,411.312L299.312,352H344c60.264,0,104,44.104,104,104.872V480h16v-23.128
			C464,386.832,413.528,336,344,336z"/>
	</g>
</g>
<g>
	<g>
		<path d="M421.658,266.374c-0.879-0.879-1.951-1.541-3.13-1.934c-7.924-2.799-15.572-6.323-22.848-10.528
			c-13.688-8.048-13.976-24.28-11.808-36.48c2.168-12.2,19.6-120.224-34.184-167.056C321.58,19.253,281.924,1.04,240,0
			c-41.919,1.032-81.575,19.233-109.688,50.344C76.376,97.312,93.936,205.232,96.128,217.416c1.784,9.936,2.672,27.856-11.4,36.232
			c-7.404,4.303-15.192,7.908-23.264,10.768c-4.19,1.403-6.449,5.936-5.046,10.126c0.393,1.173,1.052,2.239,1.926,3.114
			c15.52,16.847,37.213,26.674,60.112,27.232c3.86,0.063,7.714-0.316,11.488-1.128c4.293-1.043,6.929-5.368,5.886-9.662
			c-1.043-4.294-5.368-6.929-9.662-5.886c-0.037,0.009-0.075,0.018-0.112,0.028c-16.903,2.361-34.008-2.614-47.008-13.672
			c4.748-2.142,9.374-4.545,13.856-7.2c16.336-9.712,23.248-28.96,18.968-52.8c-7.36-40.968-9.472-119.24,29.336-152.496
			c0.335-0.286,0.645-0.599,0.928-0.936C142.512,60.68,180.688,16,240,16s97.488,44.68,97.864,45.136
			c0.283,0.337,0.593,0.65,0.928,0.936c38.68,33.152,36.64,111.472,29.336,152.528c-4.328,24.296,2.568,43.152,19.432,53.072
			c4.34,2.538,8.813,4.84,13.4,6.896c-13.012,11.081-30.15,16.053-47.072,13.656c-4.29-1.058-8.626,1.562-9.684,5.852
			s1.562,8.626,5.852,9.684c3.774,0.812,7.628,1.191,11.488,1.128c22.894-0.553,44.584-10.368,60.112-27.2
			C424.781,274.564,424.782,269.499,421.658,266.374z"/>
	</g>
</g>
<g>
	<g>
		<path d="M352.391,143.91c-0.13-0.008-0.261-0.013-0.391-0.014h-31.896V112c0-4.476-3.628-8.104-8.104-8.104
			s-8.104,3.628-8.104,8.104v31.896h-31.792V112c0-4.476-3.628-8.104-8.104-8.104s-8.104,3.628-8.104,8.104v31.896h-31.792V112
			c0-4.476-3.628-8.104-8.104-8.104s-8.104,3.628-8.104,8.104v31.896h-31.792V112c-0.004-4.474-3.63-8.1-8.104-8.104
			c-4.474,0.004-8.1,3.63-8.104,8.104v31.896H128c-4.48,0.005-8.108,3.641-8.103,8.121c0,0.16,0.005,0.319,0.015,0.479l4,66.176
			c3.736,70.24,50.048,117.432,115.2,117.432h1.688c65.184,0,111.496-47.2,115.2-117.368l4-66.24
			C360.27,148.024,356.863,144.18,352.391,143.91z M339.88,217.816c-3.248,61.056-43.056,102.08-99.048,102.08H239.2
			c-56,0-95.8-41.024-99.056-102.144l-3.504-57.648h206.752L339.88,217.816z"/>
	</g>
</g>
<g>
</g>
<g>
</g>
<g>
</g>
<g>
</g>
<g>
</g>
<g>
</g>
<g>
</g>
<g>
</g>
<g>
</g>
<g>
</g>
<g>
</g>
<g>
</g>
<g>
</g>
<g>
</g>
<g>
</g>
</svg>
