<?xml version="1.0" encoding="iso-8859-1"?>
<!-- Generator: Adobe Illustrator 19.0.0, SVG Export Plug-In . SVG Version: 6.00 Build 0)  -->
<svg version="1.1" id="Capa_1" xmlns="http://www.w3.org/2000/svg" xmlns:xlink="http://www.w3.org/1999/xlink" x="0px" y="0px"
	 viewBox="0 0 480.001 480.001" style="enable-background:new 0 0 480.001 480.001;" xml:space="preserve">
<g>
	<g>
		<path d="M335.497,39.049c-23.902-25.077-57.077-39.2-91.72-39.048h-7.552c-34.643-0.152-67.818,13.971-91.72,39.048
			c-23.795,24.596-36.406,57.909-34.864,92.096l2.864,68.2c2.89,67.712,58.811,121.014,126.584,120.656h1.824
			c67.773,0.358,123.694-52.944,126.584-120.656l2.864-68.2C371.903,96.958,359.292,63.645,335.497,39.049z M156.057,50.121
			c20.893-21.915,49.89-34.256,80.168-34.12h7.552c44.725-0.147,85.119,26.705,102.296,68c-0.04,0-0.096,0.056-0.128,0.096
			c-34.4,39.848-101.024,45.056-130.6,45.296l31.152-43.36c2.475-3.66,1.514-8.633-2.146-11.108
			c-3.094-2.092-7.224-1.765-9.95,0.788c-30.058,26.925-68.368,42.845-108.656,45.152C126.859,94.371,137.643,69.203,156.057,50.121
			z M354.377,130.473l-2.864,68.2c-2.554,59.134-51.412,105.663-110.6,105.328h-1.824c-59.188,0.335-108.046-46.194-110.6-105.328
			l-2.592-61.792c28.008-1.11,55.394-8.587,80.08-21.864l-12.472,17.368c-2.576,3.59-1.753,8.588,1.837,11.164
			c1.19,0.854,2.591,1.364,4.051,1.476c0.944,0.072,6.4,0.464,14.96,0.464c29.824,0,96.8-4.8,137.248-44.184
			C353.823,110.861,354.757,120.67,354.377,130.473z"/>
	</g>
</g>
<g>
	<g>
		<path d="M348.665,320.001h-49.88l-58.784,53.208l-58.784-53.208h-49.88c-72.416,0-131.336,60.8-131.336,135.584v24.416h16v-24.416
			c-1.079-64.834,50.505-118.319,115.336-119.584h43.712l64.952,58.792l64.952-58.792h43.712
			c64.831,1.265,116.415,54.75,115.336,119.584v24.416h16v-24.416C480.001,380.801,421.081,320.001,348.665,320.001z"/>
	</g>
</g>
<g>
</g>
<g>
</g>
<g>
</g>
<g>
</g>
<g>
</g>
<g>
</g>
<g>
</g>
<g>
</g>
<g>
</g>
<g>
</g>
<g>
</g>
<g>
</g>
<g>
</g>
<g>
</g>
<g>
</g>
</svg>
